# AST/ASF file generated using VICON BodyLanguage
# -----------------------------------------------
:version 1.10
:name VICON
:units
  mass 1.0
  length 0.45
  angle deg
:documentation
   .ast/.asf automatically generated from VICON data using
   VICON BodyBuilder and BodyLanguage model FoxedUp or BRILLIANT.MOD
:root
   order TX TY TZ RX RY RZ
   axis XYZ
   position 0 0 0  
   orientation 0 0 0 
:bonedata
  begin
     id 1 
     name lhipjoint
     direction 0.64773 -0.699417 0.302095 
     length 2.48597 
     axis 0 0 0  XYZ
  end
  begin
     id 2 
     name lfemur
     direction 0.34202 -0.939693 0  
     length 6.71947  
     axis 0 0 20  XYZ
    dof rx ry rz
    limits (-160.0 20.0)
           (-70.0 70.0)
           (-60.0 70.0)
  end
  begin
     id 3 
     name ltibia
     direction 0.34202 -0.939693 0   
     length 8.08777   
     axis 0 0 20   XYZ
    dof rx
    limits (-10.0 170.0)
  end
  begin
     id 4 
     name lfoot
     direction 0.0808503 -0.222134 0.971658   
     length 2.08264   
     axis -90 7.62852e-016 20   XYZ
    dof rx rz
    limits (-45.0 90.0)
           (-70.0 20.0)
  end
  begin
     id 5 
     name ltoes
     direction 1.53502e-011 -4.22007e-011 1   
     length 1.04662   
     axis -90 7.62852e-016 20   XYZ
    dof rx
    limits (-90.0 20.0)
  end
  begin
     id 6 
     name rhipjoint
     direction -0.610924 -0.726792 0.313919   
     length 2.39233  
     axis 0 0 0  XYZ 
  end
  begin
     id 7 
     name rfemur
     direction -0.34202 -0.939693 0   
     length 6.96955   
     axis 0 0 -20   XYZ
    dof rx ry rz
    limits (-160.0 20.0)
           (-70.0 70.0)
           (-70.0 60.0)
  end
  begin
     id 8 
     name rtibia
     direction -0.34202 -0.939693 0   
     length 8.19584   
     axis 0 0 -20   XYZ
    dof rx
    limits (-10.0 170.0)
 end
 begin
     id 9 
     name rfoot
     direction -0.077777 -0.213691 0.9738   
     length 2.07539  
     axis -90 -7.62852e-016 -20   XYZ
    dof rx rz
    limits (-45.0 90.0)
           (-20.0 70.0)
  end
  begin
     id 10 
     name rtoes
     direction -1.53558e-011 -4.22006e-011 1   
     length 1.04381   
     axis -90 -7.62852e-016 -20   XYZ
    dof rx
    limits (-90.0 20.0)
  end
  begin
     id 11 
     name lowerback
     direction -0.00971646 0.996074 0.0879841   
     length 1.67643   
     axis 0 0 0   XYZ
    dof rx ry rz
    limits (-20.0 45.0)
           (-30.0 30.0)
           (-30.0 30.0)
  end
  begin
     id 12 
     name upperback
     direction 0.0127391 0.991676 0.128127   
     length 1.63741   
     axis 0 0 0   XYZ
    dof rx ry rz
    limits (-20.0 45.0)
           (-30.0 30.0)
           (-30.0 30.0)
  end
  begin
     id 13 
     name thorax
     direction 0.0167583 0.996049 0.0872067   
     length 1.65931   
     axis 0 0 0   XYZ
    dof rx ry rz
    limits (-20.0 45.0)
           (-30.0 30.0)
           (-30.0 30.0)
  end
  begin
     id 14 
     name lowerneck
     direction -0.0317829 0.998312 0.0486079   
     length 1.79021   
     axis 0 0 0   XYZ
    dof rx ry rz
    limits (-20.0 45.0)
           (-30.0 30.0)
           (-30.0 30.0)
  end
  begin
     id 15 
     name upperneck
     direction 0.0896851 0.972452 -0.215159   
     length 1.78797   
     axis 0 0 0   XYZ
    dof rx ry rz
    limits (-20.0 45.0)
           (-30.0 30.0)
           (-30.0 30.0)
  end
  begin
     id 16
     name head
     direction 0.0310949 0.996503 -0.0775582  
     length 1.81549  
     axis 0 0 0   XYZ
    dof rx ry rz
    limits (-20.0 45.0)
           (-30.0 30.0)
           (-30.0 30.0)
  end
  begin
     id 17 
     name lclavicle
     direction 0.853638 0.502051 -0.138733  
     length 3.31627  
     axis 0 0 0   XYZ
    dof ry rz
    limits (-20.0 10.0)
           (0.0 20.0)
  end
  begin
     id 18 
     name lhumerus
     direction 1 -4.48962e-011 -1.41788e-018   
     length 5.54893   
     axis 180 -30 -90   XYZ
    dof rx ry rz
    limits (-60.0 90.0)
           (-90.0 90.0)
           (-90.0 90.0)
  end
  begin
     id 19
     name lradius
     direction 1 -4.48962e-011 -4.95754e-027   
     length 3.02898   
     axis 180 -30 -90   XYZ
    dof rx
    limits (-10.0 170.0)
  end
  begin
     id 20
     name lwrist
     direction 1 -4.48952e-011 -1.03764e-026   
     length 1.51449   
     axis 9.09556e-015 90 90   XYZ
    dof ry
    limits (-180.0 0.0)
 end
  begin
     id 21 
     name lhand
     direction 1 -4.4902e-011 -2.07528e-026   
     length 0.640951   
     axis 1.3242e-014 90 90   XYZ
    dof rx rz
    limits (-90.0 90.0)
           (-45.0 45.0)
  end
  begin
     id 22 
     name lfingers
     direction 1 -4.49014e-011 -4.15056e-026   
     length 0.516751   
     axis 2.64841e-014 90 90   XYZ
    dof rx
    limits (0.0 90.0)
  end
  begin
     id 23
     name lthumb
     direction 0.707107 -6.35008e-011 0.707107   
     length 0.741954   
     axis -90 45 2.85299e-015   XYZ
    dof rx rz
    limits (-45.0 45.0)
           (-45.0 45.0)
  end
  begin
     id 24 
     name rclavicle
     direction -0.888531 0.455324 -0.0565039   
     length 3.20126  
     axis 0 0 0   XYZ 
    dof ry rz
    limits (-10.0 20.0)
           (-20.0 0.0)
  end
  begin
     id 25 
     name rhumerus
     direction -1 -4.48946e-011 -8.98298e-028  
     length 5.3519   
     axis 180 30 90   XYZ
    dof rx ry rz
    limits (-90.0 60.0)
           (-90.0 90.0)
           (-90.0 90.0)
  end
  begin
     id 26 
     name rradius
     direction -1 -4.4899e-011 -3.18779e-027   
     length 3.02531   
     axis 180 30 90   XYZ
    dof rx
    limits (-10.0 170.0)
  end
  begin
     id 27 
     name rwrist
     direction -1 -4.4897e-011 -1.03764e-026   
     length 1.51266   
     axis 9.09556e-015 -90 -90   XYZ
    dof ry
    limits (-180.0 0.0)
  end
  begin
     id 28
     name rhand
     direction -1 -4.48941e-011 -2.07528e-026   
     length 0.78389   
     axis 1.3242e-014 -90 -90   XYZ
    dof rx rz
    limits (-90.0 90.0)
           (-45.0 45.0)
  end
  begin
     id 29
     name rfingers
     direction -1 -4.49012e-011 -4.15056e-026   
     length 0.631992   
     axis 2.64841e-014 -90 -90   XYZ
    dof rx
    limits (0.0 90.0)
  end
  begin
     id 30
     name rthumb
     direction -0.707107 -6.3496e-011 0.707107   
     length 0.907418   
     axis -90 -45 -2.85299e-015   XYZ
    dof rx rz
    limits (-45.0 45.0)
           (-45.0 45.0)
  end
:hierarchy
  begin
    root lhipjoint rhipjoint lowerback
    lhipjoint lfemur
    lfemur ltibia
    ltibia lfoot
    lfoot ltoes
    rhipjoint rfemur
    rfemur rtibia
    rtibia rfoot
    rfoot rtoes
    lowerback upperback
    upperback thorax
    thorax lowerneck lclavicle rclavicle
    lowerneck upperneck
    upperneck head
    lclavicle lhumerus
    lhumerus lradius
    lradius lwrist
    lwrist lhand lthumb
    lhand lfingers
    rclavicle rhumerus
    rhumerus rradius
    rradius rwrist
    rwrist rhand rthumb
    rhand rfingers
  end

#!OML:ASF E:\Style3\Style3.ASF
:FULLY-SPECIFIED
:DEGREES
346
root 0.440071 17.7711 0.78157 -125.744 88.3938 218.004
lowerback -12.6236 -1.33811 -1.19228
upperback -10.9565 -0.969024 1.16099
thorax -4.43342 -0.075334 1.77912
lowerneck -11.4226 -2.48729 -4.82528
upperneck 17.3097 -3.72405 7.38898
head 7.4221 -1.35857 2.86533
rclavicle 1.32813e-014 -2.12203e-014
rhumerus -21.0733 40.5002 -36.2922
rradius 107.855
rwrist -22.9521
rhand 6.52381 13.3205
rfingers 7.12502
rthumb 31.8223 -13.921
lclavicle 1.32813e-014 -2.12203e-014
lhumerus 7.11319 33.0658 24.6044
lradius 94.8219
lwrist 24.7448
lhand -32.4723 21.7394
lfingers 7.12502
lthumb -5.70472 51.6426
rfemur -14.6982 11.4778 18.6204
rtibia 15.5118
rfoot -16.2666 -21.3233
rtoes -14.8476
lfemur -6.863 -23.718 -11.5324
ltibia -2.22639e-014
lfoot -13.2245 24.3554
ltoes -7.60475
347
root 0.440667 17.7712 0.777697 -118.847 88.5925 224.896
lowerback -12.5277 -1.29472 -1.05103
upperback -11.0798 -0.917092 1.10388
thorax -4.62449 -0.0545078 1.64594
lowerneck -11.2786 -2.47469 -4.78756
upperneck 17.4362 -3.73255 7.45789
head 7.4387 -1.35231 2.88362
rclavicle 5.70264e-015 -4.87022e-015
rhumerus -19.9919 39.1796 -35.5106
rradius 108.405
rwrist -25.1652
rhand 3.5472 12.9378
rfingers 7.12502
rthumb 28.9833 -14.8288
lclavicle 5.70264e-015 -4.87022e-015
lhumerus 7.15244 32.4485 23.7636
lradius 95.099
lwrist 27.5031
lhand -30.2312 19.8163
lfingers 7.12502
lthumb -3.54071 49.7666
rfemur -14.7658 11.5046 18.5657
rtibia 15.5746
rfoot -16.2299 -21.1579
rtoes -14.7861
lfemur -6.79633 -23.4615 -11.6274
ltibia 6.36111e-015
lfoot -13.211 24.3256
ltoes -7.81453
348
root 0.438825 17.7713 0.775112 -112.426 88.8094 231.354
lowerback -12.408 -1.25207 -1.00338
upperback -11.1865 -0.860983 1.02736
thorax -4.80934 -0.0277468 1.54515
lowerneck -11.1238 -2.48884 -4.75389
upperneck 17.6023 -3.77728 7.52023
head 7.46866 -1.36324 2.89744
rclavicle -9.06955e-016 8.49804e-015
rhumerus -18.5423 37.4939 -34.4845
rradius 108.667
rwrist -26.1201
rhand 1.95157 12.6767
rfingers 7.12502
rthumb 27.4583 -15.3419
lclavicle -9.06955e-016 8.49804e-015
lhumerus 7.24937 31.5658 22.9733
lradius 95.405
lwrist 30.0703
lhand -28.1347 18.3523
lfingers 7.12502
lthumb -1.51597 48.3267
rfemur -14.7905 11.5413 18.4534
rtibia 15.6203
rfoot -16.155 -21.0506
rtoes -14.7594
lfemur -6.70449 -23.2427 -11.7882
ltibia 1.59028e-015
lfoot -13.2798 24.2202
ltoes -7.20907
349
root 0.436828 17.7691 0.773171 -100.604 88.9596 243.246
lowerback -12.3661 -1.17787 -0.917035
upperback -11.2423 -0.767989 0.974846
thorax -4.8979 0.0134512 1.44962
lowerneck -11.0255 -2.4998 -4.75806
upperneck 17.8524 -3.81432 7.5939
head 7.53662 -1.36898 2.92309
rclavicle -1.45361e-015 -2.85753e-015
rhumerus -17.0166 36.0664 -33.4412
rradius 108.915
rwrist -27.3936
rhand -0.212711 12.6806
rfingers 7.12502
rthumb 25.3866 -15.6493
lclavicle -1.45361e-015 -2.85753e-015
lhumerus 7.45248 30.4835 22.2875
lradius 95.7178
lwrist 31.8442
lhand -26.5116 17.4841
lfingers 7.12502
lthumb 0.051643 47.4638
rfemur -14.8165 11.6361 18.402
rtibia 15.7165
rfoot -16.1904 -20.8818
rtoes -14.6065
lfemur -6.55248 -22.991 -11.9168
ltibia -3.18055e-015
lfoot -13.4599 24.1311
ltoes -6.32634
350
root 0.436862 17.7679 0.770348 -85.7266 89.0217 258.145
lowerback -12.4336 -1.11213 -0.818573
upperback -11.2939 -0.683459 0.952601
thorax -4.92225 0.0511766 1.37738
lowerneck -10.9975 -2.48619 -4.76712
upperneck 18.1842 -3.81295 7.63985
head 7.64113 -1.3562 2.94514
rclavicle 6.21202e-018 2.08724e-015
rhumerus -15.4304 34.5793 -32.4374
rradius 109.099
rwrist -28.3266
rhand -2.00824 13.0302
rfingers 7.12502
rthumb 23.6655 -15.5331
lclavicle 6.21202e-018 2.08724e-015
lhumerus 7.74269 29.2065 21.708
lradius 96.0026
lwrist 32.4286
lhand -25.379 16.7602
lfingers 7.12502
lthumb 1.14548 46.7369
rfemur -14.8781 11.7309 18.3649
rtibia 15.8107
rfoot -16.2285 -20.7132
rtoes -15.183
lfemur -6.45352 -22.7307 -11.9895
ltibia -6.36111e-015
lfoot -13.8665 23.9824
ltoes -5.26413
351
root 0.435365 17.7672 0.766429 -68.5597 89.1545 275.357
lowerback -12.4233 -1.08301 -0.879694
upperback -11.3868 -0.6335 0.9193
thorax -5.0308 0.0832541 1.38079
lowerneck -10.942 -2.46663 -4.84352
upperneck 18.6101 -3.79821 7.70753
head 7.77259 -1.33758 2.98912
rclavicle 7.26806e-016 -1.21259e-014
rhumerus -13.8038 32.9324 -31.6157
rradius 109.085
rwrist -27.4566
rhand -2.53944 13.8123
rfingers 7.12502
rthumb 23.1559 -14.8159
lclavicle 7.26806e-016 -1.21259e-014
lhumerus 8.07982 27.6992 21.2088
lradius 96.2558
lwrist 32.0988
lhand -24.4097 16.0674
lfingers 7.12502
lthumb 2.08168 46.037
rfemur -14.9148 11.6621 18.1886
rtibia 15.889
rfoot -16.1931 -20.4423
rtoes -15.8909
lfemur -6.34221 -22.5051 -12.2328
ltibia 2.70347e-014
lfoot -14.0787 23.8932
ltoes -4.66223
352
root 0.431907 17.768 0.764301 -53.8768 89.166 290.115
lowerback -12.3789 -1.08171 -0.955756
upperback -11.452 -0.621495 0.934456
thorax -5.1259 0.0978027 1.44061
lowerneck -10.9016 -2.45926 -4.79773
upperneck 19.0021 -3.79619 7.64251
head 7.89234 -1.32965 2.96638
rclavicle -2.2239e-015 -7.10655e-015
rhumerus -11.932 31.4563 -30.721
rradius 109.065
rwrist -25.4464
rhand -2.67915 14.6808
rfingers 7.12502
rthumb 23.0219 -13.9643
lclavicle -2.2239e-015 -7.10655e-015
lhumerus 8.56208 26.1116 20.8301
lradius 96.5322
lwrist 31.426
lhand -23.2583 15.5765
lfingers 7.12502
lthumb 3.19365 45.5323
rfemur -14.933 11.6131 18.0991
rtibia 15.9853
rfoot -16.1361 -20.2605
rtoes -15.803
lfemur -6.22562 -22.3343 -12.396
ltibia 1.59028e-015
lfoot -14.1393 23.842
ltoes -4.4505
353
root 0.428952 17.7662 0.760994 -44.6723 89.097 299.423
lowerback -12.3971 -1.07342 -0.948798
upperback -11.4814 -0.607887 0.95755
thorax -5.1488 0.106415 1.46194
lowerneck -10.9558 -2.4803 -4.71314
upperneck 19.5159 -3.82583 7.49299
head 8.0703 -1.33764 2.90681
rclavicle 5.8393e-016 3.72721e-015
rhumerus -9.89466 30.2779 -29.7867
rradius 109.115
rwrist -23.4736
rhand -3.37538 15.342
rfingers 7.12502
rthumb 22.3537 -13.3848
lclavicle 5.8393e-016 3.72721e-015
lhumerus 9.10546 24.4357 20.4176
lradius 96.9405
lwrist 31.1571
lhand -21.8868 15.0368
lfingers 7.12502
lthumb 4.51804 44.9686
rfemur -14.9065 11.5849 18.0849
rtibia 16.0935
rfoot -16.1213 -20.125
rtoes -15.4467
lfemur -6.06985 -22.201 -12.5101
ltibia -1.11319e-014
lfoot -14.1292 23.8768
ltoes -4.86236
354
root 0.425096 17.7677 0.757002 -34.6033 89.054 309.557
lowerback -12.4409 -1.06157 -0.976048
upperback -11.5389 -0.583906 0.952938
thorax -5.18904 0.123187 1.47397
lowerneck -10.9964 -2.52615 -4.7769
upperneck 20.0404 -3.89356 7.506
head 8.25893 -1.35833 2.92355
rclavicle 1.73937e-016 -1.39149e-015
rhumerus -7.85355 29.2482 -28.9537
rradius 109.044
rwrist -21.711
rhand -4.75089 16.0327
rfingers 7.12502
rthumb 21.0327 -12.8467
lclavicle 1.73937e-016 -1.39149e-015
lhumerus 9.76903 22.6625 20.1036
lradius 97.4287
lwrist 31.5343
lhand -20.2657 14.4002
lfingers 7.12502
lthumb 6.08331 44.2928
rfemur -14.9021 11.6249 17.9844
rtibia 16.1571
rfoot -16.1532 -20.012
rtoes -15.5124
lfemur -5.97267 -22.0788 -12.6755
ltibia -1.43125e-014
lfoot -14.0028 23.9682
ltoes -5.44698
355
root 0.420112 17.7688 0.752438 -30.342 89.0274 313.871
lowerback -12.4685 -1.05847 -0.976699
upperback -11.6069 -0.57221 0.953195
thorax -5.24925 0.132988 1.47533
lowerneck -11.0014 -2.58085 -4.82147
upperneck 20.5074 -3.97224 7.50234
head 8.42301 -1.38617 2.92971
rclavicle -3.88873e-015 5.71506e-015
rhumerus -5.78824 28.3106 -28.1503
rradius 108.965
rwrist -20.7517
rhand -6.40852 16.6596
rfingers 7.12502
rthumb 19.4396 -12.3886
lclavicle -3.88873e-015 5.71506e-015
lhumerus 10.5167 20.7845 19.88
lradius 97.9931
lwrist 32.7035
lhand -18.6111 13.7626
lfingers 7.12502
lthumb 7.68057 43.6031
rfemur -14.8935 11.5424 17.9404
rtibia 16.2019
rfoot -16.1526 -19.8502
rtoes -15.758
lfemur -5.91415 -22.03 -12.7755
ltibia 3.33958e-014
lfoot -13.8067 24.0741
ltoes -5.38984
